<svg version="1.1" id="Layer_1" xmlns="http://www.w3.org/2000/svg" xmlns:xlink="http://www.w3.org/1999/xlink" x="0px" y="0px"
	 viewBox="0 0 677 573.8" style="enable-background:new 0 0 677 573.8;" xml:space="preserve">
<style type="text/css">
	.st0{fill:url(#SVGID_1_);}
	.st1{fill:url(#SVGID_2_);}
	.st2{fill:url(#SVGID_3_);}
</style>
<g>

		<linearGradient id="SVGID_1_" gradientUnits="userSpaceOnUse" x1="77.901" y1="5855.4194" x2="603.6011" y2="5855.4194" gradientTransform="matrix(1 0 0 1 0 -5584.5186)">
		<stop  offset="0" style="stop-color:#EE2A7B"/>
		<stop  offset="0.333" style="stop-color:#662D91"/>
		<stop  offset="0.666" style="stop-color:#00AEEF"/>
		<stop  offset="1" style="stop-color:#2BB673"/>
	</linearGradient>
	<path class="st0" d="M562.2,101.7c-24.4-18.9-58.1-28.6-100-28.6c-41.6,0-75.3,10-100,29.8c-27.3,21.8-41.2,53.6-41.2,94.6
		l0.2,180.8c0,27.8-8.7,49.2-25.8,63.7c-17.3,14.7-43.1,22.1-76.5,22.1c-33.5,0-59.2-7.4-76.5-22.1c-17.1-14.5-25.8-35.9-25.8-63.7
		V39H77.9v339.3c0,40.9,13.8,72.7,40.9,94.5c24.7,19.9,58.4,30,100.2,30c41.7,0,75.4-10.1,100.2-30c27.1-21.8,40.9-53.6,40.9-94.5
		v-64.8h102.3c42.2,0,75.8-9.1,99.9-27c27.4-20.3,41.3-51.1,41.3-91.7C603.4,154.1,589.5,122.8,562.2,101.7z M539.5,254.7
		c-17,13.3-43,20.1-77.3,20.1H359.7v-77.3c0-29.5,9.9-51.9,29.3-66.3c17.4-12.9,42-19.4,73.2-19.4c34.4,0,60.4,7,77.3,20.8
		c16.7,13.7,25.2,34.6,25.2,62.2C564.7,221.4,556.2,241.6,539.5,254.7z"/>

		<linearGradient id="SVGID_2_" gradientUnits="userSpaceOnUse" x1="373.5011" y1="5777.6694" x2="550.901" y2="5777.6694" gradientTransform="matrix(1 0 0 1 0 -5584.5186)">
		<stop  offset="0" style="stop-color:#00AEEF"/>
		<stop  offset="1" style="stop-color:#2BB673"/>
	</linearGradient>
	<path class="st1" d="M524.5,139c-14.1-9.1-35.1-13.7-62.3-13.7c-58.9,0-88.7,24.3-88.7,72.2V261h88.7c28.3,0,48.7-3.9,62.2-11.9
		c17.6-10.3,26.5-28.6,26.5-54.2C550.9,169.1,542,150.3,524.5,139z M412.2,197.5c0-7.8,1-13.7,2.9-17.6c5.2-10.6,21-15.9,47.1-15.9
		c13.2,0,22.4,0.4,27.3,1.3c10.2,1.8,16.8,5.8,19.8,12c1.9,3.8,2.9,9.7,2.9,17.5c0,5.5-0.6,9.9-1.9,13.2c-2.6,6.7-9,11-19.6,12.9
		c-4.6,0.9-14.2,1.3-28.5,1.3h-50L412.2,197.5L412.2,197.5z"/>

		<linearGradient id="SVGID_3_" gradientUnits="userSpaceOnUse" x1="25.4012" y1="5872.4194" x2="655.6013" y2="5872.4194" gradientTransform="matrix(1 0 0 1 0 -5584.5186)">
		<stop  offset="0" style="stop-color:#EE2A7B"/>
		<stop  offset="0.333" style="stop-color:#662D91"/>
		<stop  offset="0.666" style="stop-color:#00AEEF"/>
		<stop  offset="1" style="stop-color:#2BB673"/>
	</linearGradient>
	<path class="st2" d="M373.5,326.6v53.9c-0.5,44.8-16.2,79.6-46.6,103.5c-27.4,21.5-63.8,32.4-108,32.4
		c-44.3,0-80.6-10.9-108.1-32.4c-31-24.3-46.7-59.9-46.7-105.7V39H25.4v339.3c0,59.5,21,105.6,62.4,137.1
		c34.7,26.4,78.7,39.8,131,39.8c52.2,0,96.3-13.4,131-39.8c41.4-31.5,62.4-77.6,62.4-137.1v-12.6h50c56.9,0,103.1-14.1,137.4-41.9
		c37.2-30.1,56-73.5,56-129c0-55.6-18.8-99.6-56-130.6c-34.7-28.9-80.9-43.6-137.4-43.6c-56.3,0-102.6,15.1-137.5,44.9
		c-37.1,31.9-55.9,76.3-55.9,132V380c-0.2,9.7-2.3,16.7-6.1,20.7c-7,7.4-21.7,11.1-43.9,11.1c-22.1,0-36.9-3.7-43.9-11.1
		c-4.1-4.2-6.1-11.8-6.1-22.4V39h-38.7v339.3c0,47.9,29.8,72.2,88.7,72.2s88.7-24.3,88.7-72.2V197.5c0-44.6,14.9-79.6,44.4-103.9
		c27.4-22.7,64.5-34.2,110.3-34.2c46,0,83.1,11.1,110.3,33c29.4,23.7,44.4,58.2,44.4,102.5c0,44.1-14.9,78-44.3,100.8
		c-26.8,20.8-64,31.4-110.4,31.4L373.5,326.6z"/>
</g>
</svg>
